<?xml version="1.0" standalone="no"?><!-- Generator: Gravit.io --><svg xmlns="http://www.w3.org/2000/svg" xmlns:xlink="http://www.w3.org/1999/xlink" style="isolation:isolate" viewBox="0 0 512 218" width="512" height="218"><defs><clipPath id="_clipPath_7qnp7S0yIZ46xLVTwKVlad5t6CTWfUJA"><rect width="512" height="218"/></clipPath></defs><g clip-path="url(#_clipPath_7qnp7S0yIZ46xLVTwKVlad5t6CTWfUJA)"><g id="Group"><path d=" M 421.101 101.274 L 348.864 101.274 L 348.864 52.257 C 348.864 48.114 345.507 44.757 341.364 44.757 C 337.221 44.757 333.864 48.114 333.864 52.257 L 333.864 101.274 L 297.146 101.274 L 297.146 52.257 C 297.146 48.114 293.789 44.757 289.646 44.757 C 285.503 44.757 282.146 48.114 282.146 52.257 L 282.146 101.274 L 245.428 101.274 L 245.428 52.257 C 245.428 48.114 242.07 44.757 237.928 44.757 C 233.786 44.757 230.428 48.114 230.428 52.257 L 230.428 101.274 L 193.71 101.274 L 193.71 52.257 C 193.71 48.114 190.352 44.757 186.21 44.757 C 182.068 44.757 178.71 48.114 178.71 52.257 L 178.71 101.274 L 126.347 101.274 C 122.205 101.274 118.847 104.631 118.847 108.774 C 118.847 112.917 122.205 116.274 126.347 116.274 L 178.71 116.274 L 178.71 165.291 C 178.71 169.434 182.068 172.791 186.21 172.791 C 190.352 172.791 193.71 169.434 193.71 165.291 L 193.71 116.274 L 230.428 116.274 L 230.428 165.291 C 230.428 169.434 233.786 172.791 237.928 172.791 C 242.07 172.791 245.428 169.434 245.428 165.291 L 245.428 116.274 L 282.146 116.274 L 282.146 165.291 C 282.146 169.434 285.503 172.791 289.646 172.791 C 293.789 172.791 297.146 169.434 297.146 165.291 L 297.146 116.274 L 333.864 116.274 L 333.864 165.291 C 333.864 169.434 337.221 172.791 341.364 172.791 C 345.507 172.791 348.864 169.434 348.864 165.291 L 348.864 116.274 L 421.101 116.274 C 425.244 116.274 428.601 112.917 428.601 108.774 C 428.601 104.631 425.243 101.274 421.101 101.274 Z " fill="rgb(0,209,178)"/><path d=" M 1.212 116.121 C 8.676 138.159 37.426 203.066 120.469 217.472 C 123.54 218.005 126.347 215.614 126.347 212.497 L 126.347 108.774 L 126.347 5.05 C 126.347 1.933 123.54 -0.458 120.469 0.075 C 37.425 14.482 8.676 79.389 1.212 101.427 C -0.404 106.196 -0.404 111.352 1.212 116.121 Z " fill="rgb(0,209,178)"/></g><path d=" M 126.342 5.049 L 126.342 212.499 C 126.342 215.612 123.539 218.002 120.467 217.474 C 113.206 216.212 106.348 214.567 99.894 212.582 L 99.894 4.966 C 106.348 2.98 113.206 1.335 120.467 0.073 C 123.539 -0.454 126.342 1.935 126.342 5.049 Z " fill="rgb(2,167,143)"/><path d=" M 405.333 106.227 C 412.587 93.459 447.538 36.727 499.938 28.854 C 506.488 27.87 512.261 33.224 511.985 39.841 C 511.302 56.213 507.847 85.506 492.549 101.761 C 488.906 105.632 488.906 111.917 492.549 115.788 C 507.848 132.043 511.302 161.336 511.985 177.708 C 512.261 184.326 506.488 189.679 499.938 188.695 C 447.538 180.822 412.587 124.09 405.333 111.322 C 404.433 109.737 404.433 107.811 405.333 106.227 Z " fill="rgb(0,209,178)"/><path d=" M 492.545 115.787 C 507.916 132.109 511.329 161.588 511.991 177.921 C 512.26 184.489 506.436 189.671 499.941 188.699 C 493.156 187.675 486.65 185.844 480.475 183.383 C 481.364 181.78 481.84 179.918 481.758 177.921 C 481.096 161.589 477.683 132.11 462.323 115.787 C 458.641 111.877 458.641 105.671 462.323 101.761 C 477.683 85.439 481.096 55.96 481.758 39.627 C 481.841 37.631 481.365 35.769 480.475 34.166 C 486.65 31.704 493.156 29.873 499.941 28.849 C 506.437 27.877 512.26 33.059 511.991 39.627 C 511.329 55.96 507.916 85.439 492.545 101.761 C 488.873 105.671 488.873 111.877 492.545 115.787 Z " fill="rgb(2,167,143)"/><path d=" M 63.178 74.814 C 63.178 65.712 70.568 58.322 79.67 58.322 C 88.772 58.322 96.162 65.712 96.162 74.814 C 96.162 83.916 88.772 91.306 79.67 91.306 C 70.568 91.306 63.178 83.916 63.178 74.814 Z " fill="rgb(64,64,64)"/></g></svg>